<svg width="154" height="119" viewBox="0 0 154 119">
<g clip-path="url(#clip0_12453_32455)">
<path d="M32.6992 67.3426V51.6412C37.139 51.6412 40.7687 48.0278 40.7687 43.5718V23.7385C40.7687 10.6459 51.4307 -0.0161743 64.5233 -0.0161743H70.308V15.6852H64.5233C60.0835 15.6852 56.4538 19.2986 56.4538 23.7547V43.588C56.4538 56.6806 45.7918 67.3426 32.6992 67.3426Z" fill="url(#paint0_linear_12453_32455)"/>
<path d="M70.308 119H64.5233C51.4307 119 40.7687 108.338 40.7687 95.2454V75.4121C40.7687 70.9723 37.1552 67.3426 32.6992 67.3426V51.6412C45.7918 51.6412 56.4538 62.3033 56.4538 75.3959V95.2292C56.4538 99.669 60.0673 103.299 64.5233 103.299H70.308V119Z" fill="url(#paint1_linear_12453_32455)"/>
<path d="M19.8334 79.3333C14.7454 79.3333 9.67366 77.4051 5.80097 73.5324C-1.9444 65.787 -1.9444 53.1968 5.80097 45.4676C13.5463 37.7222 26.1366 37.7222 33.8658 45.4676L47.8982 59.5L33.8658 73.5324C29.9931 77.4051 24.9213 79.3333 19.8334 79.3333ZM16.9005 62.4329C18.5209 64.0532 21.1459 64.0532 22.7663 62.4329L25.6991 59.5L22.7663 56.5671C21.1459 54.9468 18.5209 54.9468 16.9005 56.5671C15.2801 58.1875 15.2801 60.8125 16.9005 62.4329Z" fill="url(#paint2_linear_12453_32455)"/>
<path opacity="0.2" d="M38.0303 49.6157C38.0303 49.6157 44.1877 54.0556 50.3127 59.4676C50.3127 59.4676 50.3127 59.4676 50.3289 59.4514C50.2965 59.0625 49.6321 51.4144 40.7687 42.4375V43.588C40.7687 45.9861 39.6993 48.1412 38.0303 49.6157Z" fill="black"/>
<path opacity="0.2" d="M38.0299 69.3681L25.7151 59.5L22.7822 62.4329C22.3447 62.8704 21.8262 63.1782 21.2915 63.3727L38.0461 69.3681H38.0299Z" fill="black"/>
<path d="M120.669 51.6574V67.3588C116.229 67.3588 112.599 70.9722 112.599 75.4282V95.2616C112.599 108.354 101.937 119.016 88.8448 119.016H83.0601V103.315H88.8448C93.2846 103.315 96.9142 99.7014 96.9142 95.2454V75.412C96.9142 62.3194 107.576 51.6574 120.669 51.6574Z" fill="url(#paint3_linear_12453_32455)"/>
<path d="M83.0601 0H88.8448C101.954 0 112.599 10.662 112.599 23.7546V43.588C112.599 48.0278 116.213 51.6574 120.669 51.6574V67.3588C107.56 67.3588 96.9142 56.6968 96.9142 43.6042V23.7708C96.9142 19.331 93.3008 15.7014 88.8448 15.7014H83.0601V0Z" fill="url(#paint4_linear_12453_32455)"/>
<path d="M133.535 39.6667C138.623 39.6667 143.694 41.5949 147.567 45.4676C155.312 53.213 155.312 65.8033 147.567 73.5324C139.822 81.2778 127.231 81.2778 119.502 73.5324L105.47 59.5L119.502 45.4676C123.375 41.5949 128.447 39.6667 133.535 39.6667ZM136.467 56.5672C134.847 54.9468 132.222 54.9468 130.602 56.5672L127.669 59.5L130.602 62.4329C132.222 64.0533 134.847 64.0533 136.467 62.4329C138.088 60.8125 138.088 58.1875 136.467 56.5672Z" fill="url(#paint5_linear_12453_32455)"/>
<path opacity="0.2" d="M115.338 69.368C115.338 69.368 109.181 64.9282 103.056 59.5162C103.056 59.5162 103.056 59.5162 103.04 59.5324C103.072 59.9213 103.736 67.5694 112.6 76.5463V75.3958C112.6 72.9977 113.669 70.8426 115.338 69.368Z" fill="black"/>
<path opacity="0.2" d="M115.338 49.6157L127.653 59.4838L130.586 56.5509C131.023 56.1134 131.542 55.8055 132.076 55.6111L115.322 49.6157H115.338Z" fill="black"/>
</g>
<defs>
<linearGradient id="paint0_linear_12453_32455" x1="37.3057" y1="66.0186" x2="80.2312" y2="35.3391" gradientUnits="userSpaceOnUse">
<stop stop-color="#009EDA"/>
<stop offset="1" stop-color="#6BD6FF"/>
</linearGradient>
<linearGradient id="paint1_linear_12453_32455" x1="37.3057" y1="117.676" x2="80.2312" y2="86.9965" gradientUnits="userSpaceOnUse">
<stop stop-color="#009EDA"/>
<stop offset="1" stop-color="#6BD6FF"/>
</linearGradient>
<linearGradient id="paint2_linear_12453_32455" x1="5.85965" y1="78.5535" x2="30.2349" y2="40.8776" gradientUnits="userSpaceOnUse">
<stop stop-color="#009EDA"/>
<stop offset="1" stop-color="#6BD6FF"/>
</linearGradient>
<linearGradient id="paint3_linear_12453_32455" x1="83.111" y1="52.9786" x2="138.174" y2="83.4272" gradientUnits="userSpaceOnUse">
<stop stop-color="#4084F7"/>
<stop offset="1" stop-color="#0142AF"/>
</linearGradient>
<linearGradient id="paint4_linear_12453_32455" x1="83.111" y1="1.32116" x2="138.174" y2="31.7698" gradientUnits="userSpaceOnUse">
<stop stop-color="#4084F7"/>
<stop offset="1" stop-color="#0142AF"/>
</linearGradient>
<linearGradient id="paint5_linear_12453_32455" x1="105.535" y1="40.4449" x2="143.223" y2="85.5155" gradientUnits="userSpaceOnUse">
<stop stop-color="#4084F7"/>
<stop offset="1" stop-color="#0142AF"/>
</linearGradient>
<clipPath id="clip0_12453_32455">
<rect width="153.368" height="119" fill="white"/>
</clipPath>
</defs>
</svg>
