<svg width="120" height="119" viewBox="0 0 120 119">
<g clip-path="url(#clip0_12453_32388)">
<path d="M91.4417 12.7459L89.3619 7.46384C89.3619 7.46384 88.507 4.98866 88.0859 4.2359C87.8945 3.87866 87.4479 3.36831 87.0523 2.97279C85.0107 0.931409 82.1397 0.0510617 79.5877 0.867616C78.0055 1.37796 76.4998 2.07969 76.4998 2.07969C76.4998 2.07969 76.4998 2.07969 76.487 2.07969L71.2171 4.38901C69.4945 5.14177 67.7336 5.70315 65.9217 6.08591C62.1575 6.87694 58.2785 6.87694 54.5398 6.08591C52.7278 5.70315 50.9542 5.14177 49.2316 4.38901L44.2935 2.23279C44.2935 2.23279 41.5118 0.880374 40.5293 0.586925C38.0793 -0.140318 35.3359 0.944168 33.3964 2.88348C33.0646 3.21521 32.5287 3.92969 32.3118 4.33797C31.8652 5.1928 31.0741 7.57867 31.0741 7.57867L29.0325 12.7714C28.3434 14.5194 27.4885 16.1652 26.4805 17.7218C27.9351 17.4156 29.5556 17.6197 31.3293 18.398L39.1895 21.8301L45.8247 24.7263L46.0799 24.8411L54.0038 28.286C57.9722 30.0211 62.4893 30.0211 66.4576 28.286L74.3816 24.8284L74.6368 24.7135L81.272 21.8173L89.1322 18.3853C90.9058 17.6197 92.5264 17.3901 93.981 17.709C92.973 16.1525 92.118 14.5066 91.429 12.7587L91.4417 12.7459Z" fill="url(#paint0_linear_12453_32388)"/>
<path d="M106.933 90.7523L112.216 88.6726L115.444 87.3968H115.469C115.916 87.0906 116.311 86.7588 116.707 86.3633C118.749 84.3219 119.489 81.464 118.927 78.8485V78.8357L117.613 75.8119C117.613 75.8119 117.613 75.8119 117.613 75.7992L115.316 70.5298C114.563 68.8074 114.002 67.0467 113.619 65.235C112.828 61.4712 112.828 57.5925 113.619 53.8543C114.002 52.0425 114.563 50.2691 115.316 48.5467L117.473 43.6091L119.119 39.8453C119.54 37.3318 118.761 34.6525 116.822 32.7132C116.49 32.3814 116.12 32.0752 115.75 31.8073L112.139 30.3911L106.946 28.3497C105.198 27.6607 103.551 26.8059 101.995 25.798C102.301 27.2525 102.097 28.8728 101.318 30.6463L97.886 38.5056L94.9895 45.1401L94.8747 45.3953L91.4295 53.3184C89.6941 57.2863 89.6941 61.8029 91.4295 65.7708L94.8874 73.694L95.0023 73.9491L97.8988 80.5837L101.331 88.443C102.097 90.2164 102.327 91.8368 102.008 93.2913C103.564 92.2833 105.21 91.4285 106.958 90.7395L106.933 90.7523Z" fill="url(#paint1_linear_12453_32388)"/>
<path d="M28.8923 106.254L30.9722 111.536C30.9722 111.536 31.8271 114.011 32.2482 114.764C32.4396 115.121 32.8862 115.632 33.2817 116.027C35.3233 118.069 38.1943 118.949 40.7463 118.132C42.3286 117.622 43.8343 116.92 43.8343 116.92C43.8343 116.92 43.8343 116.92 43.847 116.92L49.1169 114.624C50.8395 113.871 52.6004 113.31 54.4123 112.927C58.1765 112.136 62.0556 112.136 65.7943 112.927C67.6062 113.31 69.3798 113.871 71.1024 114.624L76.0406 116.78C76.0406 116.78 78.8223 118.132 79.8048 118.426C82.2547 119.153 84.9981 118.069 86.9376 116.129C87.2694 115.798 87.8053 115.083 88.0222 114.675C88.4688 113.82 89.2599 111.434 89.2599 111.434L91.3016 106.241C91.9906 104.493 92.8455 102.848 93.8536 101.291C92.3989 101.597 90.7784 101.393 89.0047 100.615L81.1446 97.1827L74.5094 94.2865L74.2542 94.1716L66.3302 90.7268C62.3618 88.9916 57.8448 88.9916 53.8764 90.7268L45.9524 94.1844L45.6972 94.2992L39.062 97.1954L31.2018 100.628C29.4282 101.393 27.8077 101.623 26.353 101.304C27.3611 102.86 28.216 104.506 28.905 106.254H28.8923Z" fill="url(#paint2_linear_12453_32388)"/>
<path d="M13.4143 28.2477L8.1317 30.3273L4.90341 31.6032H4.87789C4.43129 31.9094 4.03573 32.2411 3.64017 32.6366C1.59856 34.678 0.858483 37.536 1.41992 40.1515V40.1642L2.73421 43.188C2.73421 43.188 2.73421 43.188 2.73421 43.2008L5.04377 48.4701C5.79661 50.1925 6.35805 51.9532 6.74086 53.765C7.53198 57.5288 7.53198 61.4074 6.74086 65.1457C6.35805 66.9574 5.79661 68.7309 5.04377 70.4533L2.88733 75.3909L1.24128 79.1547C0.832963 81.6682 1.59856 84.3475 3.53809 86.2868C3.86985 86.6185 4.23989 86.9247 4.60993 87.1926L8.22102 88.6089L13.4143 90.6503C15.1625 91.3392 16.8085 92.194 18.3652 93.202C18.059 91.7475 18.2632 90.1271 19.0415 88.3537L22.474 80.4944L25.3705 73.8599L25.4853 73.6047L28.9305 65.6816C30.6659 61.7136 30.6659 57.197 28.9305 53.2291L25.4726 45.306L25.3577 45.0508L22.4612 38.4163L19.0288 30.557C18.2632 28.7835 18.0335 27.1632 18.3525 25.7087C16.7958 26.7166 15.1497 27.5714 13.4016 28.2604L13.4143 28.2477Z" fill="url(#paint3_linear_12453_32388)"/>
<path d="M49.19 3.85311L43.9456 1.55656C43.9456 1.55656 41.5723 0.395518 40.7301 0.165863C40.3345 0.0510346 39.6455 0 39.0968 0C36.1748 0 33.5079 1.42897 32.2702 3.8276C31.5046 5.32036 30.9304 6.88968 30.9304 6.88968L28.8122 12.2866C28.1232 14.0473 27.2683 15.7059 26.2475 17.2752C24.1293 20.5287 21.3604 23.2973 18.1321 25.3897C16.5754 26.4104 14.891 27.278 13.1302 27.967L8.06442 29.9573C8.06442 29.9573 5.11686 30.978 4.19814 31.4629C1.93961 32.6877 0.75293 35.418 0.75293 38.1867C0.75293 38.6587 0.88053 39.5518 1.02089 39.9856C1.31437 40.917 2.43725 43.1753 2.43725 43.1753L4.69578 48.3298C5.30826 49.7332 5.79314 51.175 6.16318 52.6422C6.26526 53.0377 6.75014 53.1781 7.03086 52.8719C7.83474 51.9915 8.94487 51.2643 10.3485 50.7157L18.4 47.5515L25.2011 44.885L25.4691 44.7829L33.5717 41.5805C37.6422 39.9856 40.8577 36.7577 42.4527 32.7132L45.6427 24.5987L45.7448 24.3308L48.4116 17.5304L51.5761 9.47968C52.1376 8.07623 52.8521 6.96623 53.7453 6.16243C54.0516 5.88174 53.9112 5.39691 53.5156 5.29484C52.0482 4.92484 50.6191 4.44001 49.2155 3.8276L49.19 3.85311Z" fill="url(#paint4_linear_12453_32388)"/>
<path d="M115.878 48.4446L118.174 43.2008L119.565 39.9856V39.9601C119.667 39.437 119.718 38.9011 119.718 38.3525C119.718 35.4308 118.213 32.8791 115.941 31.3991L112.854 30.187L107.456 28.069C105.695 27.3801 104.036 26.5252 102.467 25.5046C99.2131 23.3866 96.4442 20.618 94.3515 17.39C93.3307 15.8335 92.463 14.1494 91.774 12.3887L89.7834 7.32347L88.3032 3.53415C88.3032 3.53415 88.265 3.44484 88.2267 3.3938C86.721 1.33966 84.2966 0.0127563 81.5532 0.0127563C81.0811 0.0127563 80.5962 0.0510323 80.1496 0.140343L76.564 1.6969L71.409 3.95518C70.0054 4.5676 68.5635 5.05243 67.0961 5.42243C66.7005 5.5245 66.5602 6.00933 66.8664 6.29002C67.7468 7.09381 68.4742 8.20382 69.0229 9.60727L72.1873 17.658L74.8542 24.4583L74.9563 24.7263L78.159 32.828C79.754 36.898 82.9823 40.1132 87.0272 41.7081L95.1426 44.8977L95.4106 44.9998L102.212 47.6664L110.263 50.8305C111.667 51.3919 112.777 52.1064 113.581 52.9995C113.862 53.3057 114.346 53.1653 114.449 52.7698C114.819 51.3026 115.303 49.8736 115.916 48.4701L115.878 48.4446Z" fill="url(#paint5_linear_12453_32388)"/>
<path d="M71.2684 115.147L76.5128 117.443C76.5128 117.443 78.8862 118.604 79.7283 118.834C80.1239 118.949 80.8129 119 81.3616 119C84.2836 119 86.9505 117.571 88.1882 115.172C88.9538 113.68 89.528 112.11 89.528 112.11L91.6462 106.713C92.3352 104.953 93.1901 103.294 94.2109 101.725C96.3291 98.4713 99.098 95.7027 102.326 93.6103C103.883 92.5896 105.567 91.722 107.328 91.033L112.394 89.0427C112.394 89.0427 115.342 88.022 116.26 87.5371C118.519 86.3123 119.705 83.5819 119.705 80.8133C119.705 80.3413 119.578 79.4481 119.438 79.0143C119.144 78.083 118.021 75.8247 118.021 75.8247L115.763 70.6702C115.15 69.2667 114.665 67.825 114.295 66.3578C114.193 65.9622 113.708 65.8219 113.428 66.1281C112.624 67.0085 111.514 67.7357 110.11 68.2843L102.058 71.4485L95.2573 74.115L94.9893 74.2171L86.8867 77.4195C82.8162 79.0143 79.6007 82.2423 78.0057 86.2868L74.8157 94.4013L74.7136 94.6692L72.0468 101.47L68.8823 109.52C68.3208 110.924 67.6063 112.034 66.7131 112.838C66.4068 113.118 66.5472 113.603 66.9428 113.705C68.4102 114.075 69.8393 114.56 71.2429 115.172L71.2684 115.147Z" fill="url(#paint6_linear_12453_32388)"/>
<path d="M4.58442 70.5554L2.28762 75.7992L0.896773 79.0144V79.0399C0.794692 79.563 0.743652 80.0989 0.743652 80.6475C0.743652 83.5692 2.24934 86.121 4.52062 87.601L7.60855 88.813L13.006 90.931C14.7669 91.6199 16.4257 92.4748 17.9952 93.4955C21.249 95.6134 24.0179 98.382 26.1106 101.61C27.1314 103.167 27.9991 104.851 28.6881 106.611L30.6787 111.677L32.1588 115.466C32.1588 115.466 32.1971 115.555 32.2354 115.606C33.7411 117.66 36.1655 118.987 38.9089 118.987C39.381 118.987 39.8659 118.949 40.3125 118.86L43.8981 117.303L49.0531 115.045C50.4567 114.432 51.8986 113.948 53.366 113.578C53.7616 113.476 53.9019 112.991 53.5957 112.71C52.7152 111.906 51.9879 110.796 51.4392 109.393L48.2747 101.342L45.6079 94.5417L45.5058 94.2737L42.3031 86.172C40.7081 82.102 37.4798 78.8868 33.4348 77.292L25.3195 74.1023L25.0515 74.0002L18.2504 71.3337L10.1988 68.1695C8.79523 67.6081 7.68511 66.8936 6.88123 66.0005C6.6005 65.6943 6.11562 65.8347 6.01354 66.2302C5.6435 67.6974 5.15862 69.1264 4.54614 70.5299L4.58442 70.5554Z" fill="url(#paint7_linear_12453_32388)"/>
</g>
<defs>
<linearGradient id="paint0_linear_12453_32388" x1="26.572" y1="0.932825" x2="47.2802" y2="48.2987" gradientUnits="userSpaceOnUse">
<stop stop-color="#4084F7"/>
<stop offset="1" stop-color="#0142AF"/>
</linearGradient>
<linearGradient id="paint1_linear_12453_32388" x1="90.1674" y1="27.1218" x2="137.223" y2="47.2165" gradientUnits="userSpaceOnUse">
<stop stop-color="#4084F7"/>
<stop offset="1" stop-color="#0142AF"/>
</linearGradient>
<linearGradient id="paint2_linear_12453_32388" x1="26.4445" y1="89.9987" x2="47.1528" y2="137.365" gradientUnits="userSpaceOnUse">
<stop stop-color="#4084F7"/>
<stop offset="1" stop-color="#0142AF"/>
</linearGradient>
<linearGradient id="paint3_linear_12453_32388" x1="1.17421" y1="27.0325" x2="48.2248" y2="47.1219" gradientUnits="userSpaceOnUse">
<stop stop-color="#4084F7"/>
<stop offset="1" stop-color="#0142AF"/>
</linearGradient>
<linearGradient id="paint4_linear_12453_32388" x1="7.26396" y1="51.9955" x2="41.9066" y2="7.54935" gradientUnits="userSpaceOnUse">
<stop stop-color="#009EDA"/>
<stop offset="1" stop-color="#6BD6FF"/>
</linearGradient>
<linearGradient id="paint5_linear_12453_32388" x1="73.194" y1="52.1209" x2="107.952" y2="7.74046" gradientUnits="userSpaceOnUse">
<stop stop-color="#009EDA"/>
<stop offset="1" stop-color="#6BD6FF"/>
</linearGradient>
<linearGradient id="paint6_linear_12453_32388" x1="73.0579" y1="117.957" x2="107.701" y2="73.5113" gradientUnits="userSpaceOnUse">
<stop stop-color="#009EDA"/>
<stop offset="1" stop-color="#6BD6FF"/>
</linearGradient>
<linearGradient id="paint7_linear_12453_32388" x1="7.23749" y1="117.942" x2="41.9956" y2="73.5621" gradientUnits="userSpaceOnUse">
<stop stop-color="#009EDA"/>
<stop offset="1" stop-color="#6BD6FF"/>
</linearGradient>
<clipPath id="clip0_12453_32388">
<rect width="119" height="119" fill="white" transform="translate(0.730957)"/>
</clipPath>
</defs>
</svg>
