<svg width="106" height="119" viewBox="0 0 106 119">
<path d="M105.484 24.341C105.484 26.8516 104.527 29.3623 102.613 31.2736C98.785 35.0962 92.5562 35.0962 88.7281 31.2736C73.1399 15.7077 47.7869 15.7077 32.2149 31.2736C24.6722 38.8055 20.5035 48.8318 20.5035 59.4899C20.5035 70.1479 24.656 80.1743 32.2149 87.7062C39.7576 95.2381 49.7982 99.4009 60.4715 99.4009C71.1448 99.4009 81.1855 95.2543 88.7281 87.7062C92.5562 83.8835 98.785 83.8835 102.613 87.7062C106.441 91.5288 106.441 97.7487 102.613 101.571C91.3397 112.812 76.3841 119 60.4553 119C44.5265 119 29.5709 112.813 18.3137 101.571C7.05645 90.3302 0.860106 75.3798 0.860105 59.4899C0.860104 43.6 7.05645 28.6496 18.3137 17.4084C41.5581 -5.8028 79.3687 -5.8028 102.597 17.4084C104.511 19.3197 105.468 21.8304 105.468 24.341L105.484 24.341Z" fill="url(#paint0_linear_12453_32367)"/>
<path d="M89.6203 41.9155C89.6203 44.4261 88.6632 46.9367 86.7492 48.848C82.9211 52.6707 76.6923 52.6707 72.8642 48.848C70.0093 46.0135 66.2299 44.4423 62.2071 44.4423C58.1844 44.4423 54.4049 46.0135 51.5501 48.848C48.6952 51.6826 47.138 55.4729 47.138 59.4899C47.138 63.5069 48.7114 67.281 51.5501 70.1317C54.4049 72.9825 58.1844 74.5375 62.2071 74.5375C66.2299 74.5375 70.0255 72.9663 72.8642 70.1317C76.6923 66.3091 82.9211 66.3091 86.7492 70.1317C90.5773 73.9544 90.5773 80.1743 86.7492 83.9969C80.196 90.5408 71.4854 94.1528 62.2071 94.1528C52.9288 94.1528 44.2183 90.5408 37.6651 83.9969C31.1119 77.4531 27.4946 68.7549 27.4946 59.4899C27.4946 50.2248 31.1119 41.5267 37.6651 34.9829C44.2183 28.439 52.9288 24.8269 62.2071 24.8269C71.4854 24.8269 80.196 28.439 86.7492 34.9829C88.6632 36.8942 89.6203 39.4048 89.6203 41.9155Z" fill="url(#paint1_linear_12453_32367)"/>
<defs>
<linearGradient id="paint0_linear_12453_32367" x1="103.428" y1="104.425" x2="7.66337" y2="38.651" gradientUnits="userSpaceOnUse">
<stop stop-color="#009EDA"/>
<stop offset="1" stop-color="#6BD6FF"/>
</linearGradient>
<linearGradient id="paint1_linear_12453_32367" x1="28.7131" y1="94.0589" x2="94.6518" y2="34.3958" gradientUnits="userSpaceOnUse">
<stop stop-color="#4084F7"/>
<stop offset="1" stop-color="#0142AF"/>
</linearGradient>
</defs>
</svg>
