<svg width="135" height="119" viewBox="0 0 135 119">
<g clip-path="url(#clip0_12453_32481)">
<path d="M113.175 58.5618C113.175 59.2241 113.175 60.1684 113.175 60.9901V61.1496C113.175 61.4684 113.175 61.7628 113.175 62.0081C113.175 62.3882 113.15 62.7807 113.138 63.1854C112.856 72.3959 111.544 80.429 109.25 87.2724C106.957 94.1159 103.682 99.7697 99.4387 104.32C95.5632 108.465 90.9764 111.715 85.6292 114.107C80.2819 116.498 74.1621 118.031 67.2573 118.657C67.2083 118.657 67.1469 118.681 67.0979 118.693C64.7431 118.89 62.3026 119 59.7761 119H53.9629C45.1694 119 37.4675 117.761 30.857 115.333C24.2343 112.905 18.6909 109.299 14.1409 104.479C9.60308 99.6838 6.1691 93.6008 3.86342 86.1686C1.54547 78.7242 0.380371 69.9308 0.380371 59.7637C0.380371 49.5966 1.55774 40.6805 3.86342 33.1748C6.1691 25.6691 9.60308 19.5247 14.1409 14.6681C18.7032 9.78688 24.2466 6.13214 30.8693 3.67929C36.842 1.48399 43.71 0.257561 51.4732 0.0368042C50.1977 0.490581 48.9468 0.968887 47.7449 1.50851C41.9807 4.04721 36.9646 7.56705 32.7702 12.0067C27.9504 17.0964 24.3324 23.4493 21.8919 31.0163C19.4513 38.5711 18.1758 47.3277 18.0286 57.2863C18.0286 57.9118 18.0164 58.5618 18.0164 59.2363C18.0164 59.9109 18.0164 60.5486 18.0286 61.1863C18.1267 66.3619 18.6296 71.0345 19.5126 75.2044C19.8437 76.8355 20.2117 78.4053 20.6532 79.8771C22.039 84.4516 24.0013 88.2781 26.6136 91.3073C29.4957 94.6555 33.2853 97.1574 37.8722 98.7885C39.9939 99.5367 42.2996 100.113 44.7524 100.518C44.9364 100.542 45.1203 100.579 45.292 100.604C45.4024 100.616 45.5128 100.628 45.6109 100.653C48.1741 101.021 50.8845 101.205 53.7912 101.217H59.6044C60.3158 101.217 61.0271 101.217 61.7139 101.18C63.8356 101.131 65.8469 100.947 67.7602 100.677C71.8441 100.101 75.4866 99.0461 78.6753 97.4763C81.8763 95.9064 84.6112 93.8092 86.8311 91.2338C89.7622 87.8611 91.8839 83.5073 93.2821 78.2337C94.6802 72.96 95.367 66.7543 95.367 59.6165C95.367 52.4787 94.6924 46.2853 93.3066 40.9994C91.9207 35.7258 89.8235 31.3474 86.9414 27.9257C84.7339 25.3257 82.0112 23.2162 78.798 21.6341C78.6753 21.5851 78.5527 21.536 78.4301 21.4747H81.0178C83.8631 21.4747 86.4999 21.6709 88.9282 22.0143C88.9896 22.0143 89.0631 22.0266 89.1367 22.0389C89.2962 22.0634 89.4679 22.1002 89.6273 22.1247C90.032 22.186 90.4122 22.2596 90.8047 22.3332C91.0377 22.3823 91.2585 22.4191 91.4915 22.4681C91.5528 22.4804 91.6141 22.5049 91.6877 22.5172L91.8226 22.5417C91.9452 22.5662 92.0556 22.5908 92.1537 22.6276C92.3745 22.6766 92.5953 22.7257 92.8037 22.787C93.3802 22.9342 93.9443 23.0936 94.4962 23.2653C94.6066 23.3021 94.7047 23.3266 94.8151 23.3634C95.183 23.486 95.5509 23.6087 95.9066 23.7313C99.9538 25.2153 103.143 27.3983 105.595 30.2927C107.926 33.0522 109.802 36.7437 111.114 41.3551C111.409 42.3853 111.678 43.489 111.911 44.6173C112.537 47.8183 112.942 51.3872 113.089 55.3486C113.089 55.7533 113.113 56.1335 113.126 56.4891C113.126 56.7467 113.126 57.0288 113.126 57.3476C113.126 57.6788 113.126 58.0344 113.126 58.6231L113.175 58.5618Z" fill="url(#paint0_linear_12453_32481)"/>
<path d="M134.65 59.2241C134.65 69.4402 133.472 78.295 131.167 85.8007C128.861 93.3064 125.427 99.4508 120.889 104.307C116.327 109.189 110.783 112.843 104.161 115.296C98.1144 117.541 91.1361 118.767 83.2624 118.963C84.5747 118.497 85.8747 117.994 87.1379 117.43C92.9021 114.855 97.9059 111.298 102.113 106.797C106.748 101.842 110.293 95.6857 112.709 88.4252C115.149 81.1648 116.486 72.7883 116.793 63.3081C116.793 62.9401 116.817 62.5477 116.83 62.1184C116.83 61.7628 116.83 61.4562 116.83 61.1863V60.9901C116.83 60.1439 116.83 59.1873 116.83 58.5618C116.83 58.0099 116.83 57.7033 116.83 57.3108V57.2618C116.83 57.0042 116.83 56.6976 116.83 56.3542C116.83 55.9127 116.805 55.5325 116.793 55.1769V55.1523C116.56 49.0325 115.763 43.6975 114.389 39.123C113.016 34.5484 111.041 30.722 108.429 27.6927C105.547 24.3445 101.757 21.8549 97.1701 20.2115C92.5955 18.5804 87.2238 17.7954 81.0671 17.7832H75.2539C72.4208 17.7832 69.7472 17.9671 67.2576 18.3228C63.1736 18.8992 59.5311 19.9539 56.3424 21.5238C53.1537 23.0936 50.4065 25.1908 48.1867 27.7663C45.2678 31.1389 43.1338 35.4928 41.7357 40.7664C40.3376 46.04 39.6508 52.2457 39.6508 59.3835C39.6508 66.5213 40.3253 72.7147 41.7112 78.0006C43.097 83.2743 45.1942 87.6526 48.064 91.0743C50.2716 93.6743 52.9943 95.7838 56.2075 97.3659C56.3302 97.4149 56.4528 97.464 56.5754 97.5253H53.8282C48.064 97.5253 43.1461 96.7527 39.0989 95.2687C35.0517 93.7847 31.863 91.6017 29.4101 88.7073C27.0799 85.9479 25.1912 82.2563 23.879 77.645C22.5667 73.0336 21.8063 67.4902 21.6836 61.076C21.6836 60.4382 21.6714 59.8128 21.6714 59.1873C21.6714 58.5618 21.6714 57.9118 21.6836 57.2863C21.8186 47.6098 23.0695 39.2088 25.3752 32.0833C27.6809 24.9578 31.0413 19.1077 35.4319 14.4596C39.3074 10.3633 43.8942 7.15007 49.2414 4.78307C54.5886 2.41607 60.7085 0.90757 67.6133 0.282093C70.0661 0.0613365 72.6171 -0.0490417 75.2662 -0.0490417H81.0794C89.8729 -0.0490417 97.5748 1.17738 104.185 3.6057C110.808 6.03403 116.351 9.63971 120.914 14.4596C123.17 16.8634 125.169 19.5738 126.886 22.6276C128.603 25.6814 130.051 29.054 131.203 32.7701C133.509 40.2145 134.686 49.008 134.686 59.175L134.65 59.2241Z" fill="url(#paint1_linear_12453_32481)"/>
</g>
<defs>
<linearGradient id="paint0_linear_12453_32481" x1="14.1958" y1="116.662" x2="92.8439" y2="21.2063" gradientUnits="userSpaceOnUse">
<stop stop-color="#009EDA"/>
<stop offset="1" stop-color="#6BD6FF"/>
</linearGradient>
<linearGradient id="paint1_linear_12453_32481" x1="21.8246" y1="2.28524" x2="136.476" y2="110.113" gradientUnits="userSpaceOnUse">
<stop stop-color="white"/>
<stop offset="1" stop-color="#D4DEEE"/>
</linearGradient>
<clipPath id="clip0_12453_32481">
<rect width="134.281" height="119" fill="white" transform="translate(0.368164)"/>
</clipPath>
</defs>
</svg>
