<svg width="181" height="119" viewBox="0 0 181 119">
<g clip-path="url(#clip0_12453_32412)">
<path d="M52.1843 5.91023C47.1401 25.3073 29.6373 40.6075 7.4806 45.0205C3.56378 45.8045 0.730957 48.7634 0.730957 52.2786V66.719C0.730957 71.3343 5.50051 74.8369 10.6892 74.0276C24.0295 71.9413 36.387 67.3259 47.0823 60.8012C56.1011 55.3134 63.9347 48.4473 70.2074 40.5696C78.8938 29.6824 84.6028 16.8227 86.2649 2.9387C86.4528 1.3834 85.0653 0.0177612 83.2731 0.0177612H60.466C56.448 0.0177612 53.066 2.49614 52.1699 5.92287L52.1843 5.91023Z" fill="url(#paint0_linear_12453_32412)"/>
<path d="M95.1827 116.079C94.9949 117.634 96.3679 119 98.1601 119H120.967C124.985 119 128.382 116.522 129.263 113.095C134.293 93.6978 151.796 78.3976 173.967 73.9846C177.884 73.2006 180.717 70.2418 180.717 66.7265V52.2862C180.717 47.6708 175.947 44.1682 170.758 44.9775C157.418 47.0639 145.061 51.6666 134.365 58.2039C125.347 63.6791 117.513 70.5579 111.24 78.4229C102.554 89.3354 96.8449 102.195 95.1827 116.079Z" fill="url(#paint1_linear_12453_32412)"/>
<path d="M120.982 1.04997e-05H98.1746C96.3824 1.04997e-05 95.0093 1.36565 95.1828 2.92095C96.8449 16.8049 102.554 29.6647 111.24 40.5518C117.513 48.4422 125.361 55.2956 134.365 60.7835C145.061 67.3208 157.418 71.9235 170.758 74.0099C175.947 74.8192 180.717 71.3166 180.717 66.7012V52.2609C180.717 48.7456 177.884 45.7867 173.967 45.0028C151.796 40.5897 134.308 25.2769 129.263 5.89248C128.367 2.46574 124.985 -0.0126343 120.967 -0.0126343L120.982 1.04997e-05Z" fill="url(#paint2_linear_12453_32412)"/>
<path d="M70.2219 78.4229C63.9492 70.5578 56.1011 63.6791 47.0968 58.2039C36.4014 51.6539 24.0295 47.0638 10.7037 44.9775C5.50051 44.1555 0.730957 47.6708 0.730957 52.2861V66.7265C0.730957 70.2291 3.56378 73.2006 7.4806 73.9719C29.6662 78.385 47.1546 93.6851 52.1843 113.082C53.0804 116.509 56.4625 118.987 60.4804 118.987H83.2876C85.0798 118.987 86.4528 117.622 86.2649 116.066C84.6028 102.182 78.8938 89.3227 70.2074 78.4102L70.2219 78.4229Z" fill="url(#paint3_linear_12453_32412)"/>
</g>
<defs>
<linearGradient id="paint0_linear_12453_32412" x1="11.2095" y1="72.6873" x2="57.5626" y2="4.20668" gradientUnits="userSpaceOnUse">
<stop stop-color="#009EDA"/>
<stop offset="1" stop-color="#6BD6FF"/>
</linearGradient>
<linearGradient id="paint1_linear_12453_32412" x1="105.644" y1="117.543" x2="152.008" y2="49.0577" gradientUnits="userSpaceOnUse">
<stop stop-color="#009EDA"/>
<stop offset="1" stop-color="#6BD6FF"/>
</linearGradient>
<linearGradient id="paint2_linear_12453_32412" x1="95.2839" y1="1.44152" x2="166.208" y2="82.4944" gradientUnits="userSpaceOnUse">
<stop stop-color="white"/>
<stop offset="1" stop-color="#D4DEEE"/>
</linearGradient>
<linearGradient id="paint3_linear_12453_32412" x1="0.846926" y1="46.3117" x2="71.7601" y2="127.365" gradientUnits="userSpaceOnUse">
<stop stop-color="white"/>
<stop offset="1" stop-color="#D4DEEE"/>
</linearGradient>
<clipPath id="clip0_12453_32412">
<rect width="180" height="119" fill="white" transform="translate(0.730957)"/>
</clipPath>
</defs>
</svg>
