<svg width="108" height="119" viewBox="0 0 108 119">
<g clip-path="url(#clip0_12453_32437)">
<path d="M46.7589 54.0803C46.8944 55.7052 47.0469 57.3244 47.2275 58.9435C47.3122 59.6991 47.4026 60.4547 47.4985 61.2104C47.5381 61.5058 47.5832 61.7955 47.6227 62.0909C48.0292 64.8407 48.5092 67.5847 49.1415 70.2947C49.3222 71.073 49.5198 71.8514 49.7287 72.6297C49.7569 72.5445 49.7851 72.4593 49.8134 72.3741C51.0442 68.5165 52.0096 64.568 52.8509 60.6025C54.7648 51.5863 55.9166 42.4337 57.712 33.3891C58.621 28.81 59.5582 24.1059 61.2802 19.7541C62.8328 15.8226 64.7637 11.9707 69.0715 10.5731C77.2976 7.90863 81.1651 17.8906 83.0339 23.8389C85.2245 30.8155 86.7206 38.0137 88.4539 45.1153C88.7814 46.4674 89.1201 47.8196 89.4645 49.1717C91.4011 39.7863 92.4004 30.0997 96.0138 21.2255C96.042 21.1574 96.0702 21.0892 96.0985 21.021L64.3798 2.52846C61.0826 0.608188 56.5941 -0.215596 52.2693 0.0514237C52.1338 0.312762 52.004 0.574101 51.8798 0.841121C51.7668 1.07405 51.6652 1.31267 51.5579 1.5456C51.095 2.72162 50.6602 3.91469 50.2876 5.1248C49.3899 8.01089 48.6785 10.9538 48.1252 13.9251C47.826 15.5215 47.5606 17.1293 47.3348 18.7428C47.3348 18.7485 47.3348 18.7542 47.3348 18.7599C47.2896 19.1121 47.2445 19.4587 47.2049 19.8109C47.109 20.6574 47.013 21.5039 46.9283 22.3504C46.5895 25.8274 46.3637 29.31 46.2508 32.804C46.025 39.8942 46.1774 47.0072 46.7646 54.0803H46.7589Z" fill="url(#paint0_linear_12453_32437)"/>
<path d="M32.5143 32.3607C32.8191 24.1569 33.4458 15.4419 35.3711 7.16425L10.4162 21.7765C4.62915 25.1568 -0.000488281 33.4231 -0.000488281 40.1554V42.1495L40.9154 86.6794C38.2392 83.1399 36.9181 78.2427 35.9413 73.976C32.8417 60.466 32.0005 46.1832 32.5143 32.3607Z" fill="url(#paint1_linear_12453_32437)"/>
<path d="M10.4162 97.1049L43.377 116.353C49.1697 119.728 58.6153 119.728 64.4023 116.353L97.0808 97.1049C102.868 93.7303 107.272 85.4583 107.272 78.726V40.1558C107.272 38.0651 107.136 35.821 106.334 33.6281C104.951 39.3718 104.166 45.2065 102.986 51.0014C102.094 55.3873 101.264 59.9153 99.5368 64.0627C98.0632 67.6078 96.0307 71.988 91.8132 72.8175C87.2852 73.7038 83.6436 71.4767 81.3739 67.6134L68.1343 53.45C66.9712 60.3982 65.6727 67.3237 63.674 74.0731C62.2287 78.959 60.3994 85.6629 56.2101 89.0205C50.7675 93.3894 44.9804 92.06 40.9097 86.6798L-0.000488281 42.1556V78.726C-0.000488281 85.4583 4.62915 93.7303 10.4162 97.1049Z" fill="url(#paint2_linear_12453_32437)"/>
<path d="M75.2036 48.8024C74.001 43.854 72.9057 38.8544 71.6128 33.9231C70.7659 37.7864 70.0828 41.6951 69.4392 45.5924C69.0044 48.2115 68.5866 50.8363 68.1462 53.461L81.3915 67.6244C78.1 62.0227 76.7224 55.0574 75.2036 48.808V48.8024Z" fill="url(#paint3_linear_12453_32437)"/>
</g>
<defs>
<linearGradient id="paint0_linear_12453_32437" x1="46.2188" y1="1.42691" x2="111.447" y2="45.8552" gradientUnits="userSpaceOnUse">
<stop stop-color="white"/>
<stop offset="1" stop-color="#D4DEEE"/>
</linearGradient>
<linearGradient id="paint1_linear_12453_32437" x1="0.0549752" y1="8.72384" x2="62.1506" y2="40.3694" gradientUnits="userSpaceOnUse">
<stop stop-color="white"/>
<stop offset="1" stop-color="#D4DEEE"/>
</linearGradient>
<linearGradient id="paint2_linear_12453_32437" x1="0.144925" y1="35.3002" x2="80.4783" y2="135.408" gradientUnits="userSpaceOnUse">
<stop stop-color="white"/>
<stop offset="1" stop-color="#D4DEEE"/>
</linearGradient>
<linearGradient id="paint3_linear_12453_32437" x1="68.1642" y1="34.5841" x2="90.1547" y2="43.1438" gradientUnits="userSpaceOnUse">
<stop stop-color="white"/>
<stop offset="1" stop-color="#D4DEEE"/>
</linearGradient>
<clipPath id="clip0_12453_32437">
<rect width="107.667" height="119" fill="white"/>
</clipPath>
</defs>
</svg>
