<svg width="125" height="119" viewBox="0 0 125 119">
<g clip-path="url(#clip0_12453_32360)">
<path d="M112.191 32.8914C104.191 24.3306 92.8469 19.9952 78.4688 19.9952H71.6102C72.8517 24.3206 73.4725 29.367 73.4725 35.2144C73.4725 35.7851 73.4625 36.3358 73.4525 36.8865H78.4788C88.131 36.8865 95.1198 39.3496 99.8658 44.426C104.692 49.5925 107.145 58.0932 107.145 69.6778C107.145 81.2624 104.712 89.5729 99.9058 94.6493C95.1598 99.6656 88.151 102.109 78.4888 102.109H67.2947C57.6225 102.109 50.6237 99.6656 45.8777 94.6493C41.1618 89.663 38.7287 81.4627 38.6486 70.2886H31.2193C27.7849 70.2886 24.6309 69.9582 21.7473 69.3173C21.7473 69.4375 21.7473 69.5576 21.7473 69.6778C21.7473 85.6379 25.7424 97.9434 33.6023 106.264C41.5923 114.715 52.9266 119 67.2947 119H78.4888C92.8469 119 104.181 114.715 112.181 106.264C120.051 97.9434 124.036 85.6379 124.036 69.6778C124.036 53.7177 120.061 41.282 112.211 32.8914H112.191Z" fill="url(#paint0_linear_12453_32360)"/>
<path d="M73.4426 36.8865C73.2123 47.64 70.7692 55.58 65.9932 61.107C60.7265 67.2047 52.7865 70.2986 42.3834 70.2986H38.6187C38.6187 70.0983 38.6187 69.8981 38.6187 69.6778C38.6187 63.2998 39.3596 57.8729 40.8314 53.3973C42.043 49.7527 43.7151 46.7389 45.8978 44.416C48.6413 41.4723 52.1557 39.4197 56.5012 38.1981C59.6552 37.317 63.2197 36.8765 67.2748 36.8765H73.4526L73.4426 36.8865Z" fill="url(#paint1_linear_12453_32360)"/>
<path d="M71.6003 19.9952H67.2648C62.5188 19.9952 58.1133 20.4858 54.0281 21.427C45.7577 23.3394 38.899 27.1743 33.5423 32.9015C28.8163 37.9578 25.5122 44.466 23.6198 52.326C22.3882 57.4324 21.7574 63.0995 21.7274 69.3374C15.7298 67.9957 10.9338 65.2623 7.39933 61.1771C2.41304 55.3898 0 46.9392 0 35.3345C0 23.7299 2.43307 15.1391 7.43938 9.2817C12.716 3.12394 20.7061 0 31.1893 0H42.3834C52.8867 0 60.8767 3.13395 66.1133 9.31174C68.5664 12.2054 70.3887 15.7499 71.6003 19.9852V19.9952Z" fill="url(#paint2_linear_12453_32360)"/>
</g>
<defs>
<linearGradient id="paint0_linear_12453_32360" x1="21.886" y1="21.937" x2="117.417" y2="119.689" gradientUnits="userSpaceOnUse">
<stop stop-color="white"/>
<stop offset="1" stop-color="#D4DEEE"/>
</linearGradient>
<linearGradient id="paint1_linear_12453_32360" x1="42.8852" y1="69.6416" x2="64.4925" y2="40.8142" gradientUnits="userSpaceOnUse">
<stop stop-color="#009EDA"/>
<stop offset="1" stop-color="#6BD6FF"/>
</linearGradient>
<linearGradient id="paint2_linear_12453_32360" x1="8.76983" y1="67.9745" x2="53.7111" y2="8.56853" gradientUnits="userSpaceOnUse">
<stop stop-color="#009EDA"/>
<stop offset="1" stop-color="#6BD6FF"/>
</linearGradient>
<clipPath id="clip0_12453_32360">
<rect width="124.016" height="119" fill="white"/>
</clipPath>
</defs>
</svg>
