<svg width="58" height="40" viewBox="0 0 58 40" fill="none">
<rect x="0.5" y="0.5" width="57" height="39" rx="5.5" fill="white"/>
<path d="M7.29838 18.0132C6.90702 18.0132 6.86843 17.8861 6.86843 16.9599V16.8018C6.86843 15.8724 6.90702 15.7466 7.29838 15.7466H16.2474C16.6401 15.7466 16.6787 15.8724 16.6787 16.8006V16.9586C16.6787 17.8861 16.6394 18.0126 16.2474 18.0126H7.29838V18.0132ZM7.29838 13.9346C6.90702 13.9346 6.86843 13.8081 6.86843 12.8806V12.7225C6.86843 11.7919 6.90702 11.6667 7.29838 11.6667H16.2474C16.6401 11.6667 16.6787 11.7931 16.6787 12.7225V12.8806C16.6787 13.8081 16.6394 13.9346 16.2474 13.9346H7.29838ZM8.639 26.0472C8.639 24.5121 9.43999 23.668 10.6452 23.668C11.1002 23.668 11.4645 23.792 11.9201 24.0038C12.0854 24.0822 12.2221 24.0506 12.4388 23.5707L12.5966 23.2444C12.7523 22.8512 12.7638 22.6887 12.5749 22.6014C12.0163 22.2961 11.1517 22.1032 10.4048 22.1032C8.27676 22.1032 6.66666 23.6775 6.66666 26.0472C6.66666 28.4162 8.27676 29.9905 10.4042 29.9905C11.1517 29.9905 12.0359 29.7983 12.5966 29.4911C12.7834 29.4057 12.7712 29.2413 12.6169 28.8481L12.4611 28.5035C12.2445 28.023 12.107 27.9958 11.9405 28.0704C11.4848 28.2835 11.1009 28.4074 10.6452 28.4074C9.43999 28.4074 8.64103 27.5817 8.64103 26.0472H8.63968H8.639ZM33.9958 29.6276C33.9958 29.8363 33.9118 29.8932 33.2801 29.8932H33.2171C32.5516 29.8932 32.4588 29.8647 32.4067 29.7124C32.3718 29.6089 32.344 29.5036 32.3234 29.3969C31.9713 29.7901 31.5468 30 30.9001 30C29.332 30 28.3895 28.9252 28.3895 27.1966C28.3895 25.3283 29.4383 24.2219 30.9936 24.2219C31.4317 24.2219 31.8352 24.3483 32.1467 24.5785V22.1506C32.1467 21.9882 32.167 21.9205 33.0404 21.9205H33.1034C33.9118 21.9205 33.9951 21.9882 33.9951 22.1506V29.6276H33.9958ZM32.1473 25.9416C32.0406 25.8326 31.9106 25.7457 31.7658 25.6862C31.621 25.6268 31.4646 25.5962 31.3064 25.5964C30.6104 25.5964 30.2799 26.161 30.2799 27.1979C30.2799 27.7922 30.4147 28.1697 30.6104 28.3676C30.7864 28.5718 31.0572 28.6375 31.3179 28.6375C31.6395 28.6375 31.888 28.5636 32.0031 28.4264C32.1054 28.3214 32.1467 28.1589 32.1467 27.7846V25.941L32.148 25.9416H32.1473ZM43.4181 29.6656C43.4181 29.8268 43.3348 29.8932 42.5243 29.8932H42.462C41.5899 29.8932 41.5717 29.8268 41.5717 29.6656V22.1506C41.5717 21.9882 41.5899 21.9205 42.4613 21.9205H42.5236C43.3334 21.9205 43.4174 21.9882 43.4174 22.1506V29.6656H43.4181ZM36.9154 27.6677C37.0183 28.3486 37.4746 28.6761 38.1917 28.6761C38.7435 28.6761 39.2601 28.5623 39.8641 28.3214C39.99 28.274 40.1031 28.3214 40.2365 28.7026L40.3312 28.9163C40.4646 29.3096 40.4531 29.3969 40.3096 29.4721C39.5919 29.8458 38.845 29.9988 38.0143 29.9988C36.178 29.9988 35.0263 28.9555 35.0263 27.1694C35.0263 25.4327 36.0846 24.2219 37.9012 24.2219C39.6982 24.2219 40.6204 25.4131 40.6204 27.0632C40.6204 27.6108 40.5696 27.6677 40.3617 27.6677H36.9154ZM38.7719 26.6036C38.7435 26.0295 38.4943 25.5288 37.8816 25.5288C37.35 25.5288 36.9655 25.9018 36.893 26.6036H38.7719ZM46.2943 27.6677C46.3959 28.3486 46.8536 28.6761 47.5713 28.6761C48.1184 28.6761 48.6397 28.5623 49.2417 28.3214C49.3649 28.274 49.4813 28.3214 49.6154 28.7026L49.7095 28.9163C49.8429 29.3096 49.8321 29.3969 49.6892 29.4721C48.9715 29.8458 48.2233 29.9988 47.3919 29.9988C45.5549 29.9988 44.4046 28.9555 44.4046 27.1694C44.4046 25.4327 45.4608 24.2219 47.2781 24.2219C49.0765 24.2219 50 25.4131 50 27.0632C50 27.6108 49.9479 27.6677 49.74 27.6677H46.2936H46.2943ZM48.1529 26.6036C48.1191 26.0295 47.8719 25.5288 47.2592 25.5288C46.7297 25.5288 46.3437 25.9018 46.272 26.6036H48.1529ZM25.4347 25.9796C25.3412 25.8643 25.2204 25.7707 25.0819 25.706C24.9433 25.6413 24.7907 25.6073 24.6358 25.6065C23.9397 25.6065 23.6086 26.1724 23.6086 27.1789C23.6086 28.0325 23.8551 28.6666 24.6134 28.6666C24.8951 28.6666 25.1009 28.5996 25.2479 28.4637C25.3819 28.3309 25.4347 28.1475 25.4347 27.7467V25.9796ZM27.3035 29.6276C27.3035 29.8363 27.2216 29.8932 26.5885 29.8932H26.5032C25.8396 29.8932 25.7462 29.8647 25.6947 29.7124C25.6591 29.6091 25.6313 29.5037 25.6114 29.3969C25.2594 29.7901 24.8328 30 24.1882 30C22.6831 30 21.7169 28.9429 21.7169 27.2181C21.7169 25.2993 22.9112 24.2219 24.3236 24.2219C24.8951 24.2219 25.3921 24.4444 25.6629 24.7606L25.6947 24.5203C25.7035 24.4065 25.7367 24.3306 26.4192 24.3306H26.493C27.1999 24.3306 27.3021 24.3768 27.3021 24.5519V29.6276H27.3035ZM18.6375 22.7089C19.3322 22.7089 19.3742 22.7171 19.3742 22.9283V24.3294H20.5692C20.7344 24.3294 20.7859 24.3578 20.7859 24.8851V24.9629C20.7859 25.4889 20.7344 25.5193 20.5692 25.5193H19.3742V28.0337C19.3742 28.4548 19.4561 28.6761 19.8711 28.6761C20.0878 28.6761 20.2774 28.6375 20.4643 28.5813C20.6606 28.5111 20.7351 28.5996 20.8692 29.0396L20.9003 29.1452C21.0452 29.6276 21.0025 29.6656 20.8177 29.7503C20.4439 29.9134 19.9443 30 19.4778 30C18.0037 30 17.5887 29.3096 17.5887 28.1083V25.5193H16.8926C16.7166 25.5193 16.6726 25.4877 16.6726 24.9629V24.8851C16.6726 24.3578 16.7159 24.3306 16.8926 24.3306H17.6713C17.7559 23.8798 17.8995 23.2451 17.9936 22.9283C18.0457 22.7456 18.0769 22.7089 18.6375 22.7089ZM14.7754 24.3306C15.5859 24.3306 15.6576 24.3958 15.6576 24.5601V29.6656C15.6576 29.8363 15.5859 29.8932 14.7754 29.8932H14.7226C13.8309 29.8932 13.8106 29.8363 13.8106 29.6656V24.5601C13.8106 24.3958 13.8309 24.3306 14.7226 24.3306H14.7754ZM14.7226 21.8352C15.3076 21.8352 15.7314 22.2569 15.7314 22.7361C15.7288 22.8562 15.7007 22.9746 15.6486 23.0845C15.5965 23.1943 15.5216 23.2934 15.4281 23.3759C15.2385 23.5435 14.9846 23.6345 14.7226 23.6288C14.1444 23.6288 13.7158 23.2071 13.7158 22.7361C13.7158 22.2556 14.1444 21.8352 14.7226 21.8352Z" fill="#EE293D"/>
<rect x="0.5" y="0.5" width="57" height="39" rx="5.5" stroke="#F2F4F7"/>
</svg>
