<svg width="58" height="40" viewBox="0 0 58 40" fill="none">
<rect x="0.5" y="0.5" width="57" height="39" rx="5.5" fill="white"/>
<path fill-rule="evenodd" clip-rule="evenodd" d="M26.3974 32.1666H30.7242C37.4782 32.1666 42.8604 26.8083 43.0714 20.1891V20.084C42.9659 13.3598 37.4782 7.89639 30.7242 8.00146H25.8697C19.4323 8.21159 14.3667 13.675 14.5778 20.1891C14.5778 26.7032 19.8544 32.0616 26.3974 32.1666ZM16.6884 20.084C16.6884 14.6206 21.2263 10.1027 26.714 10.1027C32.2016 10.1027 36.7395 14.6206 36.7395 20.084C36.7395 25.5474 32.2016 30.0653 26.714 30.0653C21.2263 30.0653 16.6884 25.5474 16.6884 20.084ZM28.297 26.8082V13.4649C31.9906 14.4104 34.3123 18.0878 33.3625 21.7651C32.7293 24.2866 30.8297 26.1778 28.297 26.8082ZM20.171 18.403C19.2212 22.0803 21.4374 25.8626 25.131 26.8082V13.4649C22.7038 14.0952 20.8042 15.9864 20.171 18.403Z" fill="#0079BE"/>
<rect x="0.5" y="0.5" width="57" height="39" rx="5.5" stroke="#F2F4F7"/>
</svg>
