<svg width="58" height="40" viewBox="0 0 58 40" fill="none">
<rect x="0.5" y="0.5" width="57" height="39" rx="5.5" fill="white"/>
<path d="M13.0402 15.8262C13.5197 15.669 14.0327 15.5837 14.5664 15.5837C16.8957 15.5837 18.8386 17.2068 19.2843 19.3629L22.5851 18.7027C21.8277 15.0382 18.5258 12.2797 14.5664 12.2797C13.6599 12.2797 12.7873 12.4245 11.9728 12.6914L13.0402 15.8262Z" fill="#FECA2F"/>
<path d="M9.1121 26.4462L11.0884 23.8944C10.2062 23.002 9.64946 21.6993 9.64946 20.2473C9.64946 18.7963 10.2057 17.4936 11.0876 16.602L9.11029 14.0505C7.61128 15.5665 6.66666 17.7809 6.66666 20.2473C6.66666 22.715 7.61267 24.9302 9.1121 26.4462Z" fill="#1BA7DE"/>
<path d="M19.2853 21.1337C18.8381 23.2895 16.8964 24.9106 14.5692 24.9106C14.0352 24.9106 13.5213 24.825 13.0418 24.6673L11.9728 27.8038C12.7886 28.0719 13.6614 28.217 14.5692 28.217C18.5249 28.217 21.8247 25.4604 22.5851 21.7972L19.2853 21.1337Z" fill="#EC412A"/>
<path fill-rule="evenodd" clip-rule="evenodd" d="M38.4658 14.0505V23.1193L40.0932 23.7716L39.3233 25.5603L37.7139 24.9134C37.3521 24.7616 37.1072 24.5304 36.9211 24.2693C36.7424 24.0021 36.61 23.637 36.61 23.1442V14.0505H38.4658ZM26.123 20.7907C26.1635 18.1973 28.372 16.1271 31.052 16.1668C33.3266 16.2013 35.2112 17.7419 35.7062 19.791L26.9089 23.4269C26.3978 22.6715 26.1074 21.7626 26.123 20.7907ZM28.1359 21.1543C28.1239 21.0454 28.1153 20.9339 28.1186 20.8213C28.1438 19.2934 29.4441 18.0741 31.023 18.0995C31.8824 18.1106 32.6456 18.4911 33.1615 19.0801L28.1359 21.1543ZM32.9762 22.8379C32.446 23.3367 31.727 23.6405 30.9331 23.6296C30.389 23.6208 29.8848 23.4633 29.4561 23.2008L28.3933 24.8383C29.1212 25.2832 29.9794 25.5464 30.9046 25.5602C32.2513 25.5796 33.4788 25.068 34.3714 24.2233L32.9762 22.8379ZM45.239 18.0994C44.922 18.0994 44.6173 18.1489 44.3327 18.2413L43.6994 16.4064C44.1828 16.2503 44.7004 16.1655 45.239 16.1655C47.5895 16.1655 49.5503 17.7801 50 19.9248L48.0397 20.3113C47.7756 19.049 46.622 18.0994 45.239 18.0994ZM42.0205 24.3817L43.345 22.9333C42.7535 22.4268 42.381 21.6872 42.381 20.8627C42.381 20.0391 42.7535 19.2998 43.3445 18.7937L42.019 17.3453C41.0141 18.2059 40.3809 19.4634 40.3809 20.8627C40.3809 22.2638 41.0146 23.5208 42.0205 24.3817ZM45.2388 23.6271C46.6206 23.6271 47.774 22.6782 48.0397 21.4178L49.9994 21.8059C49.5475 23.9484 47.5873 25.5607 45.2388 25.5607C44.6998 25.5607 44.1816 25.4757 43.6969 25.3189L44.3317 23.4846C44.6168 23.5767 44.9217 23.6271 45.2388 23.6271Z" fill="black"/>
<rect x="0.5" y="0.5" width="57" height="39" rx="5.5" stroke="#F2F4F7"/>
</svg>
