<svg width="24" height="24" viewBox="0 0 24 24" fill="none">
<path d="M6.85461 7.43696C6.85461 7.03195 7.18294 6.70362 7.58794 6.70362H10.9761C11.3811 6.70362 11.7095 7.03195 11.7095 7.43696C11.7095 7.84197 11.3811 8.17029 10.9761 8.17029H7.58794C7.18294 8.17029 6.85461 7.84197 6.85461 7.43696Z" fill="currentColor"/>
<path d="M7.58794 11.3581C7.18294 11.3581 6.85461 11.6864 6.85461 12.0914C6.85461 12.4964 7.18294 12.8248 7.58794 12.8248H16.4673C16.8724 12.8248 17.2007 12.4964 17.2007 12.0914C17.2007 11.6864 16.8724 11.3581 16.4673 11.3581H7.58794Z" fill="currentColor"/>
<path d="M7.58794 16.0226C7.18294 16.0226 6.85461 16.3509 6.85461 16.7559C6.85461 17.1609 7.18294 17.4893 7.58794 17.4893H16.4673C16.8724 17.4893 17.2007 17.1609 17.2007 16.7559C17.2007 16.3509 16.8724 16.0226 16.4673 16.0226H7.58794Z" fill="currentColor"/>
<path fill-rule="evenodd" clip-rule="evenodd" d="M19.152 1.35633C18.3643 1.08208 17.5233 0.964282 16.6844 1.00938H7.26621C6.43081 0.97017 5.59448 1.09252 4.8121 1.36977C4.02381 1.64913 3.30565 2.08037 2.70824 2.63839C2.11062 3.1966 1.64721 3.86932 1.35442 4.61355C1.06591 5.34691 0.951003 6.1298 1.01904 6.90957V17.0954C0.951668 17.879 1.0689 18.6655 1.36113 19.4015C1.65761 20.1483 2.12587 20.8224 2.72889 21.3806C3.33171 21.9385 4.05561 22.3681 4.84927 22.6443C5.63615 22.918 6.47628 23.0356 7.31425 22.9907H16.7325C17.5671 23.0297 18.4026 22.9076 19.1843 22.6308C19.9718 22.352 20.6895 21.9216 21.2868 21.3647C21.8844 20.8075 22.3481 20.136 22.6417 19.3929C22.9311 18.6605 23.0473 17.8784 22.9809 17.099V6.91298C23.0494 6.1288 22.9331 5.34151 22.6414 4.60453C22.3455 3.85668 21.8773 3.18141 21.274 2.62229C20.6709 2.06336 19.9464 1.63295 19.152 1.35633ZM16.7047 2.47605V1.74271L16.7465 2.47486C17.4027 2.43739 18.059 2.5288 18.6697 2.74144C19.2803 2.95405 19.8279 3.28172 20.2771 3.69802C20.726 4.11412 21.0656 4.60826 21.2777 5.14423C21.4896 5.67984 21.5707 6.24779 21.5175 6.81065C21.5153 6.83361 21.5142 6.85666 21.5142 6.87972V17.1315C21.5142 17.154 21.5152 17.1764 21.5173 17.1989C21.5689 17.758 21.4879 18.3219 21.2777 18.854C21.0673 19.3863 20.7311 19.8775 20.2866 20.292C19.842 20.7066 19.2999 21.034 18.6948 21.2482C18.0897 21.4625 17.4387 21.5573 16.7866 21.5249C16.7745 21.5243 16.7623 21.524 16.7502 21.524H7.294C7.28008 21.524 7.26617 21.5244 7.25227 21.5252C6.59677 21.5625 5.94124 21.4713 5.3312 21.259C4.72122 21.0468 4.17413 20.7198 3.72516 20.3042C3.27639 19.8888 2.93677 19.3955 2.72429 18.8603C2.51196 18.3255 2.43023 17.7583 2.48255 17.1961C2.48465 17.1735 2.4857 17.1508 2.4857 17.1281V6.87638C2.4857 6.85336 2.48462 6.83035 2.48245 6.80743C2.42961 6.24787 2.50967 5.68327 2.71927 5.15049C2.92901 4.61737 3.26492 4.12537 3.70938 3.71022C4.15405 3.29487 4.69646 2.96679 5.30201 2.7522C5.90761 2.53759 6.55924 2.44261 7.21199 2.47514C7.22415 2.47575 7.23632 2.47605 7.24849 2.47605H16.7047Z" fill="currentColor"/>
</svg>

