<svg width="24" height="24" viewBox="0 0 24 24" fill="currentColor">
<path d="M17.1158 22.9893H6.8819C3.14907 22.9893 1.00852 21.0505 1.00852 17.6697V6.31618C0.96634 5.60467 1.08112 4.89269 1.34624 4.22131C1.61136 3.54994 2.02156 2.93247 2.55318 2.40454C3.13528 1.92434 3.81794 1.55346 4.56121 1.3136C5.30448 1.07374 6.09343 0.96971 6.8819 1.0076H17.117C20.8474 1.0076 22.9879 2.94309 22.9879 6.31618V17.6697C23.0385 18.3842 22.9299 19.1006 22.6686 19.7769C22.4074 20.4531 21.9987 21.0756 21.4665 21.6077C20.8821 22.0899 20.1955 22.4609 19.4478 22.6983C18.7002 22.9357 17.907 23.0347 17.1158 22.9893ZM7.11391 16.1046C6.95016 16.1042 6.78907 16.1419 6.64619 16.2139C6.50331 16.2859 6.38346 16.3898 6.29823 16.5157C6.20706 16.6454 6.15597 16.7947 6.1502 16.9482C6.14444 17.1016 6.18421 17.2537 6.26543 17.3887C6.34665 17.5237 6.46638 17.6368 6.6123 17.7163C6.75821 17.7959 6.92503 17.839 7.09559 17.8412C7.13642 17.8416 7.17723 17.8394 7.2177 17.8346H16.7849C17.0204 17.8106 17.238 17.7094 17.3959 17.5502C17.5538 17.3911 17.6411 17.1852 17.6411 16.9718C17.6411 16.7584 17.5538 16.5525 17.3959 16.3933C17.238 16.2342 17.0204 16.133 16.7849 16.109H7.2116C7.17914 16.1061 7.14653 16.1046 7.11391 16.1046ZM7.2116 11.0961C6.95883 11.0961 6.71642 11.1865 6.53769 11.3473C6.35895 11.5082 6.25854 11.7264 6.25854 11.9539C6.25854 12.1814 6.35895 12.3996 6.53769 12.5605C6.71642 12.7214 6.95883 12.8118 7.2116 12.8118H16.7849C17.0376 12.8118 17.28 12.7214 17.4588 12.5605C17.6375 12.3996 17.7379 12.1814 17.7379 11.9539C17.7379 11.7264 17.6375 11.5082 17.4588 11.3473C17.28 11.1865 17.0376 11.0961 16.7849 11.0961H7.2116ZM7.2116 6.11834V6.12933C6.95916 6.12933 6.71705 6.21959 6.53855 6.38026C6.36005 6.54093 6.25977 6.75885 6.25977 6.98607C6.25977 7.21329 6.36005 7.4312 6.53855 7.59187C6.71705 7.75254 6.95916 7.8428 7.2116 7.8428H10.8626C11.1168 7.8428 11.3607 7.7519 11.5404 7.5901C11.7202 7.4283 11.8212 7.20885 11.8212 6.98002C11.8212 6.7512 11.7202 6.53175 11.5404 6.36994C11.3607 6.20814 11.1168 6.11724 10.8626 6.11724L7.2116 6.11834Z" fill="currentColor"/>
</svg>
