<svg width="16" height="16" viewBox="0 0 16 16" fill="currentColor">
<path fill-rule="evenodd" clip-rule="evenodd" d="M8.26364 3.07045C8.52692 2.86012 8.83491 2.65799 9.17716 2.48712C9.78776 2.1883 10.4599 2.02013 11.1503 2.00043C11.1614 2.00024 11.1725 2.00009 11.1837 2C13.2947 2.01706 14.9999 3.63351 14.9999 5.89176C14.9999 6.49523 14.9072 7.06433 14.7422 7.59982C14.3337 7.3648 13.8936 7.19704 13.4386 7.09985C13.5453 6.70729 13.5999 6.30489 13.5999 5.89176C13.5999 4.36094 12.524 3.29716 11.1499 3.29716C10.3967 3.29716 9.58191 3.66689 8.98971 4.21435L7.99991 5.13154L7.01011 4.21435C6.41791 3.66689 5.60311 3.29716 4.84991 3.29716C3.49191 3.29716 2.39991 4.37132 2.39991 5.89176C2.39991 7.80138 3.56611 9.48073 5.65141 11.018C6.17291 11.402 6.72941 11.7607 7.34611 12.1207C7.55541 12.2433 7.76261 12.3607 7.99991 12.4918C8.0329 12.4735 8.0653 12.4556 8.09721 12.4379C8.1899 12.8731 8.34724 13.2951 8.56652 13.689C8.4848 13.7339 8.40641 13.7768 8.33175 13.8176C8.33122 13.8179 8.3307 13.8181 8.33017 13.8184H8.3283L8.20014 13.8895C8.12921 13.9284 8.06234 13.9652 7.99991 13.9999C7.90014 13.9444 7.78898 13.8836 7.66807 13.8176C6.96725 13.4346 5.93866 12.8724 4.89812 12.1195C2.97 10.7237 1.0003 8.67216 1.0003 5.89243C1.00016 5.88292 1.00006 5.87341 1 5.86391C1.00339 5.32784 1.10448 4.82833 1.28473 4.37827C1.45409 3.9554 1.69332 3.5762 1.98704 3.25136C2.68086 2.48402 3.67868 2.02005 4.77754 2.00051M6.74377 2.44858C7.14535 2.64043 7.50222 2.87639 7.79825 3.12086C7.47579 2.85013 7.12098 2.62467 6.74377 2.44858Z" fill="currentColor"/>
<path d="M11.966 11.1441C12.0135 11.1441 12.0591 11.1252 12.0927 11.0917C12.1263 11.0581 12.1451 11.0126 12.1451 10.9651V9.17909C12.1446 9.15534 12.1488 9.13171 12.1575 9.1096C12.1662 9.08748 12.1793 9.06732 12.1958 9.05028C12.2124 9.03325 12.2322 9.01969 12.2541 9.01038C12.276 9.00108 12.2995 8.99622 12.3233 8.99609H12.6807C12.7282 8.99609 12.7738 9.01495 12.8074 9.04852C12.841 9.08209 12.8599 9.12762 12.8599 9.17509V10.9651C12.8599 11.0126 12.8787 11.0581 12.9123 11.0917C12.9459 11.1252 12.9915 11.1441 13.039 11.1441H14.8258C14.8723 11.1454 14.9165 11.1647 14.949 11.1979C14.9815 11.2311 14.9998 11.2756 15 11.3221V11.6791C15 11.7266 14.9811 11.7721 14.9475 11.8057C14.9139 11.8392 14.8683 11.8581 14.8208 11.8581H13.039C12.9915 11.8581 12.9459 11.877 12.9123 11.9105C12.8787 11.9441 12.8599 11.9896 12.8599 12.0371V13.8221C12.8586 13.8685 12.8392 13.9126 12.806 13.9451C12.7728 13.9776 12.7282 13.9959 12.6817 13.9961H12.3233C12.2758 13.9961 12.2302 13.9772 12.1966 13.9437C12.163 13.9101 12.1441 13.8646 12.1441 13.8171V12.0371C12.1441 11.9896 12.1253 11.9441 12.0917 11.9105C12.0581 11.877 12.0125 11.8581 11.965 11.8581H10.1792C10.1317 11.8581 10.0861 11.8392 10.0525 11.8057C10.0189 11.7721 10 11.7266 10 11.6791V11.3221C10 11.2746 10.0189 11.2291 10.0525 11.1955C10.0861 11.162 10.1317 11.1431 10.1792 11.1431L11.966 11.1441Z" fill="currentColor" stroke="currentColor" stroke-width="0.4"/>
</svg>
