<svg width="16" height="16" viewBox="0 0 16 16" fill="currentColor">
<g clip-path="url(#clip0_101_399)">
<path d="M7.99992 14.6666C4.31792 14.6666 1.33325 11.6819 1.33325 7.99992C1.33325 4.31792 4.31792 1.33325 7.99992 1.33325C11.6819 1.33325 14.6666 4.31792 14.6666 7.99992C14.6666 11.6819 11.6819 14.6666 7.99992 14.6666ZM7.99992 13.3333C9.41441 13.3333 10.771 12.7713 11.7712 11.7712C12.7713 10.771 13.3333 9.41441 13.3333 7.99992C13.3333 6.58543 12.7713 5.22888 11.7712 4.22868C10.771 3.22849 9.41441 2.66659 7.99992 2.66659C6.58543 2.66659 5.22888 3.22849 4.22868 4.22868C3.22849 5.22888 2.66659 6.58543 2.66659 7.99992C2.66659 9.41441 3.22849 10.771 4.22868 11.7712C5.22888 12.7713 6.58543 13.3333 7.99992 13.3333ZM5.66659 9.33325H9.33325C9.42166 9.33325 9.50644 9.29813 9.56895 9.23562C9.63147 9.17311 9.66659 9.08832 9.66659 8.99992C9.66659 8.91151 9.63147 8.82673 9.56895 8.76422C9.50644 8.7017 9.42166 8.66659 9.33325 8.66659H6.66659C6.22456 8.66659 5.80063 8.49099 5.48807 8.17843C5.17551 7.86587 4.99992 7.44195 4.99992 6.99992C4.99992 6.55789 5.17551 6.13397 5.48807 5.82141C5.80063 5.50885 6.22456 5.33325 6.66659 5.33325H7.33325V3.99992H8.66659V5.33325H10.3333V6.66659H6.66659C6.57818 6.66659 6.49339 6.7017 6.43088 6.76422C6.36837 6.82673 6.33325 6.91151 6.33325 6.99992C6.33325 7.08832 6.36837 7.17311 6.43088 7.23562C6.49339 7.29813 6.57818 7.33325 6.66659 7.33325H9.33325C9.77528 7.33325 10.1992 7.50885 10.5118 7.82141C10.8243 8.13397 10.9999 8.55789 10.9999 8.99992C10.9999 9.44195 10.8243 9.86587 10.5118 10.1784C10.1992 10.491 9.77528 10.6666 9.33325 10.6666H8.66659V11.9999H7.33325V10.6666H5.66659V9.33325Z" fill="currentColor"/>
</g>
<defs>
<clipPath id="clip0_101_399">
<rect width="16" height="16" fill="white"/>
</clipPath>
</defs>
</svg>
