<svg width="16" height="16" viewBox="0 0 16 16" fill="currentColor">
<path d="M12.3158 9.66553C11.8999 9.61011 11.479 9.72075 11.1441 9.9735C10.8067 10.1702 10.1642 10.6902 9.79812 10.5572C7.82858 9.73718 6.24756 8.19447 5.37943 6.24564C5.24434 5.87047 5.76229 5.22513 5.95687 4.88356C6.20679 4.54445 6.31612 4.12194 6.26205 3.70417C5.83266 2.87101 5.28343 2.1053 4.63189 1.43148C4.41913 1.19549 4.12934 1.0429 3.81437 1.00102C2.76376 0.956922 1.59067 2.35889 1.38419 2.69416C0.869037 3.4095 0.871837 4.36071 1.39329 5.51561C2.65317 8.61492 7.40294 13.2933 10.5142 14.5966C11.0021 14.8436 11.5382 14.9812 12.0848 14.9997C12.524 15.0067 12.9538 14.872 13.3104 14.6155C13.5771 14.4622 15.0364 13.2303 14.998 12.151C14.9554 11.8377 14.8049 11.5491 14.5724 11.3349C13.9055 10.6715 13.1453 10.1091 12.3158 9.66553Z" fill="currentColor"/>
</svg>
