<svg width="16" height="16" viewBox="0 0 16 16" fill="currentColor">
<path d="M3.56449 12.199C3.7765 12.199 3.96042 12.0621 4.06349 11.8768C4.21564 11.6033 4.42779 11.3659 4.68572 11.1834C5.04043 10.9324 5.46427 10.7976 5.8988 10.7976C6.33333 10.7976 6.75717 10.9324 7.11188 11.1834C7.36981 11.3659 7.58196 11.6033 7.73411 11.8768C7.83718 12.0621 8.0211 12.199 8.2331 12.199H14.4966C14.7727 12.199 14.9966 12.4228 14.9966 12.699V13.0986C14.9966 13.3748 14.7727 13.5986 14.4966 13.5986H8.2331C8.0211 13.5986 7.83718 13.7355 7.73411 13.9208C7.58196 14.1943 7.36981 14.4317 7.11188 14.6142C6.75717 14.8652 6.33333 15 5.8988 15C5.46427 15 5.04043 14.8652 4.68572 14.6142C4.42779 14.4317 4.21564 14.1943 4.06349 13.9208C3.96042 13.7355 3.7765 13.5986 3.5645 13.5986H1.5C1.22386 13.5986 1 13.3748 1 13.0986V12.699C1 12.4228 1.22386 12.199 1.5 12.199H3.56449ZM7.76347 7.30017C7.97547 7.30017 8.15939 7.16327 8.26246 6.978C8.41461 6.70449 8.62676 6.46708 8.88469 6.28457C9.2394 6.03358 9.66324 5.8988 10.0978 5.8988C10.5323 5.8988 10.9561 6.03358 11.3109 6.28457C11.5688 6.46708 11.7809 6.70449 11.9331 6.978C12.0362 7.16327 12.2201 7.30017 12.4321 7.30017H14.4966C14.7727 7.30017 14.9966 7.52403 14.9966 7.80017V8.19983C14.9966 8.47597 14.7727 8.69983 14.4966 8.69983H12.4321C12.2201 8.69983 12.0362 8.83673 11.9331 9.022C11.7809 9.29551 11.5688 9.53292 11.3109 9.71543C10.9561 9.96642 10.5323 10.1012 10.0978 10.1012C9.66324 10.1012 9.2394 9.96642 8.88469 9.71543C8.62676 9.53292 8.41461 9.29551 8.26246 9.022C8.15939 8.83673 7.97547 8.69983 7.76347 8.69983H1.5C1.22386 8.69983 1 8.47597 1 8.19983V7.80017C1 7.52403 1.22386 7.30017 1.5 7.30017H7.76347ZM3.56449 2.40137C3.7765 2.40137 3.96042 2.26447 4.06349 2.0792C4.21564 1.80569 4.42779 1.56828 4.68572 1.38577C5.04043 1.13478 5.46427 1 5.8988 1C6.33333 1 6.75717 1.13478 7.11188 1.38577C7.36981 1.56828 7.58196 1.80569 7.73411 2.0792C7.83718 2.26447 8.0211 2.40137 8.2331 2.40137H14.4966C14.7727 2.40137 14.9966 2.62523 14.9966 2.90137V3.30103C14.9966 3.57717 14.7727 3.80103 14.4966 3.80103H8.2331C8.0211 3.80103 7.83718 3.93793 7.73411 4.1232C7.58196 4.39671 7.36981 4.63412 7.11188 4.81663C6.75717 5.06762 6.33333 5.2024 5.8988 5.2024C5.46427 5.2024 5.04043 5.06762 4.68572 4.81663C4.42779 4.63412 4.21564 4.39671 4.06349 4.1232C3.96042 3.93793 3.7765 3.80103 3.5645 3.80103H1.5C1.22386 3.80103 1 3.57717 1 3.30103V2.90137C1 2.62523 1.22386 2.40137 1.5 2.40137H3.56449Z" fill="currentColor"/>
</svg>
