<svg width="24" height="24" viewBox="0 0 24 24" fill="currentColor">
<path fill-rule="evenodd" clip-rule="evenodd" d="M22.6014 8.51438L12.8963 1.26825C12.4439 0.910583 11.6805 0.910583 11.2281 1.26825L1.53014 8.51438C1.22619 8.72633 1 9.15023 1 9.5079L1 21.7217C1 22.4304 1.60789 23 2.36422 23L8.06852 23C8.55625 23 8.73296 22.6092 8.73296 22.4503L8.73296 17.4561C8.73296 15.8201 10.0194 14.4027 11.6876 14.2636C13.6597 14.1245 15.2501 15.5419 15.2501 17.317L15.2501 22.4503C15.2501 22.649 15.4481 23 15.9358 23L21.6189 23C22.3752 23 22.9831 22.4304 22.9831 21.7217L22.9831 9.5079C23.0538 9.15023 22.8983 8.79919 22.6014 8.51438Z" fill="currentColor"/>
</svg>
