<svg width="16" height="16" viewBox="0 0 16 16" fill="currentColor">
<path d="M8.07416 14.9935C8.04885 14.9983 8.02299 14.9998 7.99735 14.9973C7.8928 14.9871 7.79176 14.9546 7.7017 14.902C6.09509 13.9047 4.69008 12.6356 3.55487 11.1565C2.59511 9.91463 2.05267 8.42089 2.00003 6.8749C1.99692 5.84431 2.27476 4.8309 2.80589 3.93553C3.33703 3.04015 4.10295 2.29402 5.02743 1.77139C5.94415 1.25819 6.98786 0.991788 8.0488 1.00019C9.10975 1.0086 10.1487 1.2915 11.0565 1.81916C11.9629 2.36239 12.7082 3.12082 13.2208 4.02132C13.7367 4.92819 14.0048 5.94599 13.9999 6.97949C13.8316 9.09893 12.8578 11.0848 11.264 12.559C10.4021 13.4387 9.43579 14.2182 8.38483 14.8814C8.28838 14.9351 8.18338 14.973 8.07416 14.9935ZM7.99398 4.99228C7.72584 4.99193 7.46035 5.0432 7.21318 5.14306C6.966 5.24292 6.74216 5.38935 6.55485 5.5737C6.26736 5.85466 6.07197 6.21048 5.9929 6.59709C5.91383 6.98369 5.95454 7.38409 6.10999 7.74868C6.25928 8.11244 6.51887 8.42471 6.85512 8.64498C7.19136 8.86525 7.58873 8.98336 7.99569 8.984H8.01027C8.27642 8.98437 8.53995 8.93355 8.78534 8.83454C9.03074 8.73554 9.25303 8.59035 9.43911 8.40752C9.67553 8.17372 9.8496 7.88845 9.94649 7.57605C10.0434 7.26365 10.0602 6.93337 9.99555 6.61336C9.93089 6.29336 9.78666 5.99312 9.57515 5.73824C9.36364 5.48337 9.09112 5.2814 8.78083 5.14958C8.53237 5.04641 8.26465 4.99289 7.99398 4.99228Z" fill="currentColor"/>
</svg>
