<svg width="16" height="16" viewBox="0 0 16 16" fill="currentColor">
<path d="M1 3.49564C1 3.25562 1.14304 3.0387 1.36365 2.94415L5.64422 1.10962C5.80644 1.0401 5.99104 1.04552 6.1489 1.12445L9.85111 2.97556C10.009 3.05448 10.1936 3.05991 10.3558 2.9904L14.5121 1.2093C14.5654 1.18647 14.6235 1.17722 14.6812 1.18238C14.7389 1.18754 14.7944 1.20695 14.8428 1.23887C14.8912 1.27079 14.9308 1.31422 14.9583 1.36526C14.9857 1.4163 15.0001 1.47335 15 1.5313V12.5044C15 12.7444 14.857 12.9613 14.6364 13.0558L10.3558 14.8904C10.1936 14.9599 10.009 14.9545 9.8511 14.8755L6.14889 13.0244C5.99104 12.9455 5.80644 12.9401 5.64423 13.0096L1.4879 14.7907C1.43464 14.8135 1.37654 14.8228 1.31883 14.8176C1.26111 14.8125 1.20558 14.793 1.15721 14.7611C1.10885 14.7292 1.06916 14.6858 1.04172 14.6347C1.01429 14.5837 0.999949 14.5266 1 14.4687V3.49564ZM9.23164 13.0005C9.63058 13.2 10.1 12.91 10.1 12.4639V4.66113C10.1 4.64319 10.0816 4.63111 10.0652 4.63821C10.0584 4.64112 10.0507 4.6409 10.0441 4.63761L6.76836 2.99946C6.36942 2.79995 5.9 3.09005 5.9 3.53609V11.3389C5.9 11.3568 5.91836 11.3689 5.93484 11.3618C5.9416 11.3589 5.9493 11.3591 5.95588 11.3624L9.23164 13.0005Z" fill="currentColor"/>
</svg>
