<svg width="28" height="30" viewBox="0 0 28 30" fill="currentColor">
<g filter="url(#filter0_d_101_196)">
<path d="M12.4735 22.7771C13.0076 23.3529 15.0221 23.3513 15.5549 22.7743C16.7072 21.5262 18.2271 20.5141 19.3099 19.7915C22.1249 18.0973 24 15.0681 24 11.6126C24 6.32513 19.448 2.03495 14.0166 2.00063C14.0164 2.00063 14.0163 2.00049 14.0163 2.00032C14.0163 2.00014 14.0161 2 14.0159 2C14.005 2.00001 13.9947 2.00063 13.9837 2.00063C13.9728 2.00063 13.9625 2.00001 13.9515 2C13.9514 2 13.9512 2.00014 13.9512 2.00032C13.9512 2.00049 13.9511 2.00063 13.9509 2.00063C8.52015 2.03495 4 6.32513 4 11.6126C4 15.0902 5.89984 18.1365 8.74472 19.8244C9.83023 20.5452 11.3322 21.5466 12.4735 22.7771Z" fill="currentColor"/>
<path d="M18.7973 18.9316L18.7773 18.9436L18.758 18.9565L18.7121 18.9871C17.6524 19.6942 16.0737 20.7476 14.8487 22.0654C14.8336 22.0731 14.7809 22.1003 14.6687 22.13C14.495 22.1762 14.2641 22.2054 14.0139 22.2056C13.7636 22.2058 13.5326 22.177 13.3587 22.1312C13.2461 22.1015 13.1932 22.0744 13.1782 22.0667C11.9493 20.7507 10.3656 19.6991 9.30099 18.9923L9.29473 18.9881L9.27369 18.9742L9.25197 18.9613C6.68883 17.4405 4.99762 14.7105 4.99762 11.6126C4.99762 6.92381 9.02639 3.03414 13.9572 3.00299L13.9572 3.00299C13.9602 3.00297 13.9633 3.00293 13.9663 3.00289C13.9715 3.00296 13.9774 3.003 13.9837 3.003C13.9901 3.003 13.996 3.00296 14.0012 3.00289C14.0042 3.00293 14.0073 3.00297 14.0103 3.00299L14.0103 3.00299C18.946 3.03417 23.0024 6.92788 23.0024 11.6126C23.0024 14.6909 21.3332 17.4053 18.7973 18.9316Z" stroke="white" stroke-width="2"/>
</g>
<circle cx="13.8291" cy="11.4004" r="4" fill="white"/>
<defs>
<filter id="filter0_d_101_196" x="0" y="0" width="28" height="29.208" filterUnits="userSpaceOnUse" color-interpolation-filters="sRGB">
<feFlood flood-opacity="0" result="BackgroundImageFix"/>
<feColorMatrix in="SourceAlpha" type="matrix" values="0 0 0 0 0 0 0 0 0 0 0 0 0 0 0 0 0 0 127 0" result="hardAlpha"/>
<feOffset dy="2"/>
<feGaussianBlur stdDeviation="2"/>
<feComposite in2="hardAlpha" operator="out"/>
<feColorMatrix type="matrix" values="0 0 0 0 0.151042 0 0 0 0 0.4495 0 0 0 0 0.725 0 0 0 0.16 0"/>
<feBlend mode="normal" in2="BackgroundImageFix" result="effect1_dropShadow_101_196"/>
<feBlend mode="normal" in="SourceGraphic" in2="effect1_dropShadow_101_196" result="shape"/>
</filter>
</defs>
</svg>
