<svg width="24" height="24" viewBox="0 0 24 24">
<circle cx="12" cy="12" r="12" fill="currentColor" opacity="0.1"/>
<path d="M12.0742 19.3588C12.0489 19.3635 12.023 19.365 11.9974 19.3625C11.8928 19.3524 11.7918 19.3199 11.7017 19.2672C10.0951 18.2699 8.69008 17.0009 7.55487 15.5217C6.59511 14.2799 6.05267 12.7861 6.00003 11.2401C5.99692 10.2095 6.27476 9.19614 6.80589 8.30076C7.33703 7.40538 8.10295 6.65926 9.02743 6.13663C9.94415 5.62343 10.9879 5.35702 12.0488 5.36543C13.1097 5.37383 14.1487 5.65674 15.0565 6.18439C15.9629 6.72763 16.7082 7.48606 17.2208 8.38655C17.7367 9.29343 18.0048 10.3112 17.9999 11.3447C17.8316 13.4642 16.8578 15.4501 15.264 16.9242C14.4021 17.8039 13.4358 18.5834 12.3848 19.2466C12.2884 19.3003 12.1834 19.3382 12.0742 19.3588ZM11.994 9.35751C11.7258 9.35717 11.4604 9.40844 11.2132 9.5083C10.966 9.60816 10.7422 9.75459 10.5548 9.93894C10.2674 10.2199 10.072 10.5757 9.9929 10.9623C9.91383 11.3489 9.95454 11.7493 10.11 12.1139C10.2593 12.4777 10.5189 12.7899 10.8551 13.0102C11.1914 13.2305 11.5887 13.3486 11.9957 13.3492H12.0103C12.2764 13.3496 12.54 13.2988 12.7853 13.1998C13.0307 13.1008 13.253 12.9556 13.4391 12.7728C13.6755 12.539 13.8496 12.2537 13.9465 11.9413C14.0434 11.6289 14.0602 11.2986 13.9956 10.9786C13.9309 10.6586 13.7867 10.3584 13.5752 10.1035C13.3636 9.8486 13.0911 9.64664 12.7808 9.51481C12.5324 9.41164 12.2647 9.35813 11.994 9.35751Z" fill="currentColor"/>
</svg>
