<svg width="24" height="24" viewBox="0 0 24 24" fill="none">
<path d="M9.41125 21.7373C9.94492 22.4295 10.7199 22.875 11.5679 22.977C12.4185 23.0803 13.2742 22.8327 13.951 22.2873C14.1574 22.1289 14.3438 21.9441 14.5058 21.7373M3.0008 13.9658L3.0008 13.7249C3.03494 13.0109 3.25445 12.3199 3.63603 11.7251C4.27425 11.0123 4.71347 10.1323 4.90648 9.17966C4.90648 8.44705 4.90648 7.70345 4.96789 6.96974C5.28233 3.43982 8.64057 1 11.9586 1L12.0412 1C15.3592 1 18.7174 3.43982 19.0467 6.96974C19.1081 7.70235 19.0467 8.44595 19.0985 9.17966C19.2927 10.1337 19.7296 11.0161 20.3637 11.735C20.7482 12.3246 20.9681 13.0134 20.9989 13.7249L20.9989 13.9548C21.021 14.9153 20.703 15.8507 20.1054 16.5838C19.3064 17.4503 18.2321 17.9862 17.0817 18.0919C13.6982 18.469 10.2856 18.469 6.90216 18.0919C5.75528 17.9799 4.68491 17.4449 3.88483 16.5838C3.29594 15.8505 2.98198 14.9207 3.0008 13.9658Z" stroke="currentColor" stroke-width="1.5" stroke-miterlimit="10" stroke-linecap="round" stroke-linejoin="round"/>
</svg>