<svg width="24" height="24" viewBox="0 0 24 24" fill="currentColor">
<path d="M11.4528 22.9637C10.791 22.8642 10.1658 22.5862 9.6394 22.1574C9.42941 22.0154 9.25349 21.8252 9.12511 21.6016C8.99674 21.3779 8.91932 21.1267 8.89879 20.8671C8.89879 20.3171 9.38759 20.0597 9.83936 19.9508C11.2641 19.835 12.6953 19.835 14.1201 19.9508C14.5718 20.0608 15.0606 20.3127 15.0606 20.8671C15.0407 21.1263 14.9641 21.3774 14.8367 21.6012C14.7092 21.825 14.5344 22.0156 14.3253 22.1585C13.7987 22.586 13.1741 22.8635 12.5129 22.9637C12.3358 22.9875 12.1573 22.9996 11.9787 23C11.8028 23.0003 11.6271 22.9882 11.4528 22.9637ZM6.98908 18.3217C5.81768 18.2121 4.7258 17.659 3.92085 16.7674C3.32303 16.0384 2.99843 15.1095 3.00673 14.1516C2.95243 13.2342 3.22808 12.3285 3.78014 11.6106C4.16463 11.1973 4.46296 10.7059 4.65647 10.1672C4.84999 9.62857 4.93453 9.05418 4.9048 8.48L4.9048 8.007C4.83253 6.46592 5.31666 4.95236 6.26223 3.7632C6.96158 2.90137 7.83275 2.20789 8.81541 1.73077C9.79807 1.25365 10.8687 1.00431 11.9533 1L12.0485 1C13.1585 1.00266 14.254 1.26322 15.2547 1.76261C16.2555 2.26201 17.1363 2.98762 17.8326 3.8864C18.7258 5.05252 19.1775 6.51832 19.1022 8.007V8.48C19.0775 9.05405 19.1642 9.62741 19.3573 10.1658C19.5503 10.7043 19.8457 11.1968 20.2258 11.6139C20.7752 12.3317 21.0486 13.2361 20.9929 14.1516C21.0018 15.1098 20.6776 16.0391 20.0798 16.7685C19.2747 17.6597 18.1829 18.2128 17.0116 18.3228C15.3495 18.4691 13.6852 18.5945 11.9998 18.5945C10.3259 18.6025 8.65299 18.5114 6.98908 18.3217Z" fill="currentColor"/>
</svg>
