<svg width="16" height="16" viewBox="0 0 16 16" fill="none">
<g clip-path="url(#clip0_101_410)">
<g clip-path="url(#clip1_101_410)">
<path d="M7.99998 14.5488C11.2345 14.5488 13.8566 11.9267 13.8566 8.69212C13.8566 5.45757 11.2345 2.83545 7.99998 2.83545C4.76543 2.83545 2.14331 5.45757 2.14331 8.69212C2.14331 11.9267 4.76543 14.5488 7.99998 14.5488Z" stroke="currentColor" stroke-miterlimit="10"/>
<path d="M10.0533 3.82337C10.0533 3.82337 11.2122 6.76337 13.53 7.95337L13.8567 8.15559C13.7621 7.17284 13.421 6.22987 12.8649 5.41409C12.3088 4.59831 11.5558 3.93613 10.6756 3.48892C10.8658 3.18132 11.1532 2.94594 11.4922 2.82003C11.3158 2.75996 11.1279 2.74134 10.9431 2.76562C10.7583 2.7899 10.5816 2.85642 10.4267 2.96003C10.4919 2.59496 10.4379 2.21857 10.2726 1.88658C10.1073 1.55459 9.83955 1.28465 9.5089 1.1167C9.72208 1.38752 9.84934 1.71595 9.87429 2.0597C9.89924 2.40346 9.82074 2.74682 9.6489 3.04559C9.11253 2.89363 8.55749 2.8177 8.00001 2.82003C6.65355 2.82311 5.34893 3.28821 4.30419 4.1376C3.25944 4.98699 2.53785 6.16921 2.26001 7.4867C2.36112 7.44781 8.17112 6.24225 10.0533 3.82337Z" fill="currentColor"/>
<path d="M8.00006 12.7211C8.68905 12.714 9.35405 12.4671 9.88069 12.0228C10.4073 11.5785 10.7627 10.9646 10.8856 10.2866H5.1145C5.23744 10.9646 5.59279 11.5785 6.11943 12.0228C6.64606 12.4671 7.31107 12.714 8.00006 12.7211Z" fill="currentColor"/>
<path d="M6.16446 8.82453C6.29829 8.82453 6.42912 8.78484 6.5404 8.71049C6.65167 8.63613 6.7384 8.53045 6.78962 8.40681C6.84083 8.28316 6.85423 8.14711 6.82812 8.01585C6.80202 7.88459 6.73757 7.76402 6.64294 7.66938C6.5483 7.57475 6.42773 7.5103 6.29647 7.48419C6.16521 7.45808 6.02916 7.47148 5.90551 7.5227C5.78187 7.57392 5.67618 7.66065 5.60183 7.77192C5.52748 7.8832 5.48779 8.01403 5.48779 8.14786C5.48779 8.32732 5.55908 8.49943 5.68598 8.62633C5.81288 8.75323 5.985 8.82453 6.16446 8.82453Z" fill="currentColor"/>
<path d="M9.8356 8.82453C9.96943 8.82453 10.1003 8.78484 10.2115 8.71049C10.3228 8.63613 10.4095 8.53045 10.4608 8.40681C10.512 8.28316 10.5254 8.14711 10.4993 8.01585C10.4732 7.88459 10.4087 7.76402 10.3141 7.66938C10.2194 7.57475 10.0989 7.5103 9.96761 7.48419C9.83635 7.45808 9.7003 7.47148 9.57665 7.5227C9.45301 7.57392 9.34733 7.66065 9.27297 7.77192C9.19862 7.8832 9.15894 8.01403 9.15894 8.14786C9.15894 8.32732 9.23023 8.49943 9.35713 8.62633C9.48403 8.75323 9.65614 8.82453 9.8356 8.82453Z" fill="currentColor"/>
</g>
</g>
<defs>
<clipPath id="clip0_101_410">
<rect width="16" height="16" fill="white"/>
</clipPath>
<clipPath id="clip1_101_410">
<rect width="14" height="14" fill="white" transform="translate(1 1)"/>
</clipPath>
</defs>
</svg>
