<svg width="16" height="16" viewBox="0 0 16 16" fill="currentColor">
<path d="M9.615 11.8837L5.6403 9.8302C5.25877 10.1889 4.77365 10.4327 4.24611 10.5306C3.71857 10.6286 3.17222 10.5764 2.67594 10.3807C2.17966 10.1849 1.75566 9.85438 1.45741 9.43072C1.15916 9.00705 1 8.50922 1 8C1 7.49078 1.15916 6.99295 1.45741 6.56929C1.75566 6.14562 2.17966 5.81508 2.67594 5.61934C3.17222 5.4236 3.71857 5.37142 4.24611 5.46938C4.77365 5.56734 5.25877 5.81106 5.6403 6.1698L9.615 4.11635C9.47868 3.51051 9.57714 2.87843 9.89237 2.3357C10.2076 1.79297 10.7185 1.37586 11.3317 1.16065C11.945 0.945429 12.6195 0.946489 13.2319 1.16363C13.8444 1.38077 14.3538 1.79949 14.6672 2.34321C14.9805 2.88692 15.0767 3.51931 14.9383 4.12472C14.7998 4.73012 14.436 5.2681 13.9132 5.64027C13.3904 6.01243 12.7437 6.19391 12.0913 6.15153C11.4389 6.10914 10.8244 5.84572 10.3602 5.40943L6.38546 7.46288C6.46475 7.81702 6.46475 8.18298 6.38546 8.53712L10.3602 10.5906C10.8244 10.1543 11.4389 9.89086 12.0913 9.84848C12.7437 9.80609 13.3904 9.98757 13.9132 10.3597C14.436 10.7319 14.7998 11.2699 14.9383 11.8753C15.0767 12.4807 14.9805 13.1131 14.6672 13.6568C14.3538 14.2005 13.8444 14.6192 13.2319 14.8364C12.6195 15.0535 11.945 15.0546 11.3317 14.8394C10.7185 14.6241 10.2076 14.207 9.89237 13.6643C9.57714 13.1216 9.47868 12.4895 9.615 11.8837Z" fill="currentColor"/>
</svg>
